<svg width="958" height="1080" viewBox="0 0 958 1080" fill="none" xmlns="http://www.w3.org/2000/svg">
    <rect width="958" height="1080" transform="matrix(1 0 0 -1 0 1080)"
        fill="url(#paint0_linear_1133_7037)" />
    <g clip-path="url(#clip0_1133_7037)">
        <path
            d="M630.231 493.556C633.709 493.556 635.332 495.421 635.332 500.472H624.202C624.511 495.265 626.675 493.556 630.231 493.556ZM639.429 501.716C639.429 493.789 636.105 490.835 630.308 490.835C624.82 490.835 619.951 493.478 619.951 502.104C619.951 510.342 624.356 513.14 631.236 513.14C633.709 513.14 636.183 512.829 638.656 512.285V508.555C636.337 509.488 633.864 509.954 631.313 510.032C626.907 510.032 624.202 508.089 623.97 503.348H639.275C639.352 502.804 639.429 502.26 639.429 501.716ZM616.163 490.758C613.69 490.835 611.293 491.923 609.593 493.711V491.146H604.801L604.646 491.69C605.264 492.545 606.269 493.944 606.269 495.265V512.752H610.134V495.498C611.603 494.954 613.226 494.721 614.772 494.644C615.854 494.644 616.859 494.721 617.941 494.799L618.25 491.069C617.554 490.913 616.859 490.835 616.163 490.758ZM590.656 510.342C586.25 510.342 584.24 507.778 584.24 501.949C584.24 496.276 586.327 493.633 590.656 493.633C594.984 493.633 596.994 496.12 596.994 502.027C596.994 507.933 595.139 510.42 590.656 510.342ZM590.656 513.14C597.612 513.14 601.168 509.41 601.168 502.027C601.168 494.644 597.612 490.913 590.656 490.913C583.699 490.913 579.989 494.644 579.989 502.027C579.989 509.41 583.699 513.14 590.656 513.14ZM567.699 513.14C570.636 513.063 573.573 512.674 576.433 511.819L575.892 507.778C573.419 509.254 570.559 509.954 567.621 509.954C560.433 509.954 557.418 506.379 557.418 497.675C557.418 488.97 560.433 485.395 567.621 485.395C570.481 485.395 573.341 486.172 575.892 487.571L576.433 483.608C573.573 482.753 570.636 482.287 567.699 482.209C557.882 482.209 552.858 487.416 552.858 497.675C552.858 507.933 557.882 513.14 567.699 513.14ZM529.901 493.633C533.379 493.633 535.003 495.498 535.003 500.55H523.872C524.181 495.265 526.345 493.633 529.901 493.633ZM539.099 501.716C539.099 493.789 535.775 490.835 529.978 490.835C524.49 490.835 519.621 493.478 519.621 502.104C519.621 510.342 524.027 513.14 530.906 513.14C533.379 513.14 535.853 512.829 538.326 512.285V508.555C536.007 509.488 533.534 509.954 530.983 510.032C526.577 510.032 523.872 508.089 523.64 503.348H539.022C539.099 502.804 539.177 502.26 539.099 501.716ZM507.563 490.835C505.012 490.991 502.538 491.69 500.297 492.934V482.597H494.963L494.809 483.141C495.427 484.074 496.432 485.473 496.432 486.794V512.829H500.297V495.421C502.229 494.488 504.316 493.944 506.403 493.866C509.727 493.866 510.886 495.11 510.886 498.685V512.829H514.751V498.374C514.828 493.245 512.587 490.835 507.563 490.835ZM491.64 509.41C490.248 509.876 488.857 510.109 487.388 510.109C484.838 510.109 483.601 508.866 483.601 506.457V493.944H491.33V491.146H483.601V485.473L479.813 486.639V491.146H476.335V493.944H479.813V505.757C479.813 510.731 481.978 513.063 486.693 513.063C488.393 513.063 490.016 512.907 491.64 512.441V509.41ZM448.74 501.871C448.74 496.276 450.75 493.866 455.465 493.866C457.088 493.866 458.634 494.022 460.258 494.333V509.177C458.712 509.565 457.088 509.798 455.465 509.798C450.75 509.721 448.74 507.389 448.74 501.871ZM455.465 490.835C448.045 490.835 444.566 494.333 444.566 501.794C444.566 509.254 447.967 512.752 455.079 512.752C456.856 512.752 458.634 512.363 460.258 511.664V513.684C460.258 517.648 458.943 518.969 455.001 518.969C452.219 518.891 449.513 518.192 447.04 516.948V520.757C449.668 521.378 452.296 521.767 455.001 521.767C461.262 521.767 464.122 518.891 464.122 512.752V492.312C461.34 491.379 458.402 490.835 455.465 490.835ZM432.431 490.835C429.726 490.991 427.098 491.768 424.779 493.089V491.146H419.909L419.754 491.69C420.373 492.545 421.378 494.022 421.378 495.265V512.752H425.243V495.343C427.175 494.41 429.185 493.866 431.349 493.789C434.673 493.789 435.832 495.032 435.832 498.607V512.752H439.697V498.296C439.62 493.245 437.378 490.835 432.431 490.835ZM414.808 491.224H409.474L409.32 491.768C409.938 492.623 410.943 494.022 410.943 495.343V512.829H414.808V491.224ZM412.721 487.96C414.344 487.96 415.194 487.105 415.194 485.551C415.194 483.996 414.344 483.141 412.721 483.141C411.097 483.141 410.17 483.996 410.17 485.551C410.17 487.105 411.02 487.96 412.721 487.96ZM406.073 509.41C404.682 509.876 403.29 510.109 401.822 510.109C399.271 510.109 398.112 508.866 398.112 506.457V493.944H405.687V491.146H398.112V485.473L394.247 486.639V505.757C394.247 510.731 396.411 513.063 401.126 513.063C402.827 513.063 404.45 512.907 406.073 512.441V509.41ZM390.846 491.224H384.121V488.038C384.121 485.939 385.049 485.084 387.213 485.084C388.372 485.084 389.455 485.318 390.537 485.628V482.753C389.223 482.364 387.831 482.209 386.44 482.209C382.189 482.209 380.256 484.307 380.256 488.893V491.146H375.928V493.944H380.256V512.752H384.121V493.944H390.769L390.846 491.224ZM358.459 506.612C358.459 504.047 360.082 503.115 363.019 502.571L368.43 501.56V509.021C366.575 509.798 364.565 510.187 362.478 510.265C360.314 510.265 358.459 509.177 358.459 506.612ZM363.638 490.835C360.855 490.913 358.15 491.302 355.522 492.079V495.965C357.995 494.721 360.7 494.022 363.483 493.944C367.425 493.944 368.507 494.954 368.507 498.374V499.229L362.246 500.084C357.686 500.706 354.285 502.182 354.285 507.078C354.285 511.586 357.454 513.218 361.01 513.218C363.792 513.218 366.498 512.519 368.817 511.12L369.435 512.907H372.372V498.452C372.372 493.089 369.744 490.835 363.638 490.835ZM349.338 490.835C346.865 490.913 344.468 492.001 342.768 493.789V491.146H337.976L337.821 491.69C338.439 492.545 339.444 493.944 339.444 495.265V512.752H343.309V495.421C344.778 494.877 346.401 494.644 347.947 494.566C349.029 494.566 350.034 494.644 351.116 494.721L351.425 490.991C350.729 490.913 350.034 490.835 349.338 490.835ZM325.763 513.14C328.7 513.063 331.637 512.674 334.497 511.819L333.956 507.778C331.483 509.254 328.623 509.954 325.685 509.954C318.497 509.954 315.482 506.379 315.482 497.675C315.482 488.97 318.497 485.395 325.685 485.395C328.545 485.395 331.405 486.172 333.956 487.571L334.497 483.608C331.637 482.753 328.7 482.287 325.763 482.209C315.946 482.209 310.922 487.416 310.922 497.675C310.922 507.933 315.946 513.14 325.763 513.14ZM332.565 450.112C330.555 450.112 329.087 449.101 329.782 447.003L343.695 403.093C345.937 402.86 348.179 402.782 350.42 402.782C360.005 402.782 366.498 404.725 366.498 412.808C366.498 420.501 360.391 438.221 354.517 443.972C349.724 448.635 343.309 450.112 332.565 450.112ZM604.491 451.277C597.767 451.277 593.902 448.48 593.902 441.252C593.902 432.237 600.008 414.051 606.965 407.056C610.521 403.481 614.772 401.772 620.492 401.772C627.216 401.772 630.54 404.647 630.54 411.253C630.54 420.035 623.738 441.019 616.472 447.158C613.071 449.956 608.82 451.433 604.491 451.277ZM519.002 395.321H508.181L494.5 439.076L478.345 395.321H457.939L460.799 401.539L442.943 457.806H453.765L468.374 411.875L485.688 457.806H498.983L519.002 395.321ZM448.509 395.321H398.421L401.281 401.539L383.425 457.806H430.73L433.127 450.034H405.068C403.059 450.034 401.513 449.101 402.208 446.848L407.851 429.206H428.798L431.194 421.434H410.247L416.122 403.171H446.035L448.509 395.321ZM325.917 395.321L328.855 401.539L310.999 457.806H332.024C344.005 457.806 354.826 455.863 363.638 449.723C374.382 442.107 381.57 425.786 381.57 413.118C381.57 399.129 369.744 395.321 352.662 395.321H325.917ZM622.888 394.078C611.68 394.078 603.177 396.953 596.607 401.772C586.404 409.233 578.365 428.506 578.365 441.485C578.365 454.464 587.486 459.049 602.173 459.049C612.376 459.049 620.337 456.562 626.753 452.21C638.038 444.516 646.077 424.854 646.077 411.797C645.999 398.974 637.188 394.078 622.888 394.078ZM557.882 394.078C549.302 394.078 540.722 395.943 534.693 399.984C529.746 403.404 526.423 408.222 526.423 414.673C526.423 429.284 550.925 432.392 550.925 441.097C550.925 448.169 543.969 451.666 535.389 451.666C526.5 451.666 519.157 446.381 516.993 444.982L513.592 456.174C520.548 458.117 527.659 459.049 534.848 459.049C551.467 459.049 567.467 452.21 567.467 436.978C567.467 422.056 543.273 418.636 543.273 410.087C543.273 404.025 549.225 401.772 556.259 401.772C562.133 401.772 567.853 403.481 572.646 406.746L576.124 396.331C570.172 394.855 564.066 394.155 557.882 394.078Z"
            fill="white" />
    </g>
    <defs>
        <linearGradient id="paint0_linear_1133_7037" x1="479" y1="-127.8" x2="479" y2="1080"
            gradientUnits="userSpaceOnUse">
            <stop stop-color="#DC0032" stop-opacity="0.8" />
            <stop offset="1" stop-color="#DC0032" />
        </linearGradient>
        <clipPath id="clip0_1133_7037">
            <rect width="335" height="128" fill="white" transform="translate(311 394)" />
        </clipPath>
    </defs>
</svg>